# xmcd CD database file
#
# Track frame offsets:
#	150
#	25247
#	41440
#	60097
#	86599
#	118235
#	126499
#	147666
#	176205
#	199261
#
# Disc length: 2871 seconds
#
# Revision: 0
# Processed by: cddbd v1.5.1PL0 Copyright (c) Steve Scherf et al.
# Submitted via: CDex 1.51
#
DISCID=930b350a
DTITLE=ABC Music - Cafe Latte
DYEAR=1999
DGENRE=Jazz
TTITLE0=Biru
TTITLE1=Lamentos Do Morros
TTITLE2=Waltz for Debbie
TTITLE3=The Connection
TTITLE4=Teena De Healer
TTITLE5=Sounds of Bells
TTITLE6=Blue Song
TTITLE7=Choro Para Metronome
TTITLE8=Homecoming
TTITLE9=Unknown (Unlisted Track)
EXTD=YEAR: 1999
EXTT0=
EXTT1=
EXTT2=
EXTT3=
EXTT4=
EXTT5=
EXTT6=
EXTT7=
EXTT8=
EXTT9=
PLAYORDER=
